<svg id="Layer_1" data-name="Layer 1" xmlns="http://www.w3.org/2000/svg" viewBox="0 0 150 150"><title>camera</title><path d="M80.14,49.74a37,37,0,1,0,37,37A37,37,0,0,0,80.14,49.74Zm0,23.71A13.27,13.27,0,1,1,66.88,86.71,13.28,13.28,0,0,1,80.14,73.45Z" style="fill:#111"/><path d="M105.86,52.62a42.62,42.62,0,0,1,0,68.19h35.91V52.62Z" style="fill:#111"/><path d="M37.37,86.71A42.66,42.66,0,0,1,54.42,52.62H8.23v68.19H54.42a42.66,42.66,0,0,1-17.05-34.1" style="fill:#111"/><rect x="11.71" y="15" width="31.63" height="7.38" style="fill:#111"/><rect x="21.17" y="25.28" width="12.72" height="7.38" style="fill:#111"/><path d="M80.14,129.49a42.5,42.5,0,0,1-15.3-2.88H9.24V135H140.75v-8.39H95.44a42.54,42.54,0,0,1-15.3,2.88" style="fill:#111"/><path d="M80.14,43.94a42.54,42.54,0,0,1,15.3,2.88h45.32V24.45h-81L49.1,35.13a1.45,1.45,0,0,1-1,.42H9.24V46.82h55.6a42.5,42.5,0,0,1,15.3-2.88m29.62-11.46h18.86v7.35H109.76Z" style="fill:#111"/></svg>