<svg id="Layer_1" data-name="Layer 1" xmlns="http://www.w3.org/2000/svg" viewBox="0 0 155 154.35"><title>drone</title><path d="M122.38,92.15a29.7,29.7,0,0,0-15.91,4.62L99.8,87.05a17.48,17.48,0,0,1,0-19.74l6.67-9.73a30,30,0,1,0-9.38-9.37l-9.72,6.67a17.48,17.48,0,0,1-19.74,0L57.9,48.21a30,30,0,1,0-9.37,9.37l6.67,9.73a17.48,17.48,0,0,1,0,19.74l-6.68,9.71a30,30,0,1,0,9.38,9.38l9.73-6.67a17.48,17.48,0,0,1,19.74,0l9.72,6.67a29.91,29.91,0,1,0,25.29-14m0-84.76a24.93,24.93,0,1,1-13,46.17l10.72-14.15a7.25,7.25,0,0,0,2.26.39,7.6,7.6,0,0,0,3.22-.75l7.48,7.5L136.62,43l-7.51-7.48a7.44,7.44,0,0,0-9.94-9.94l-7.48-7.51-3.54,3.54,7.5,7.48a7.46,7.46,0,0,0-.75,3.22,7.75,7.75,0,0,0,.39,2.24L101.14,45.28A24.87,24.87,0,0,1,122.38,7.39M7.71,32.32a24.93,24.93,0,1,1,46.17,13L39.73,34.57a7.19,7.19,0,0,0,.39-2.25,7.6,7.6,0,0,0-.75-3.22l7.5-7.48-3.54-3.54-7.48,7.51a7.44,7.44,0,0,0-9.94,9.94L18.4,43l3.54,3.54,7.48-7.5a7.6,7.6,0,0,0,3.22.75,7.75,7.75,0,0,0,2.24-.39L45.6,53.56A24.87,24.87,0,0,1,7.71,32.32M32.64,147a24.93,24.93,0,1,1,13-46.17L34.88,115a7,7,0,0,0-5.46.36l-7.48-7.5-3.54,3.54,7.51,7.48a7.44,7.44,0,0,0,9.94,9.94l7.48,7.51,3.54-3.54-7.5-7.48a7.6,7.6,0,0,0,.75-3.22,7.75,7.75,0,0,0-.39-2.24L53.88,109.1A24.87,24.87,0,0,1,32.64,147M77.51,84.67A7.48,7.48,0,1,1,85,77.19a7.48,7.48,0,0,1-7.48,7.48M122.38,147a24.87,24.87,0,0,1-21.24-37.91l14.15,10.72a7.05,7.05,0,0,0,.36,5.46l-7.49,7.5,3.52,3.52,7.5-7.49a7.26,7.26,0,0,0,3.2.75,7.48,7.48,0,0,0,7.48-7.48,7.26,7.26,0,0,0-.75-3.2l7.5-7.5-3.52-3.52-7.5,7.49a7.05,7.05,0,0,0-5.46-.36l-10.72-14.15a24.91,24.91,0,1,1,13,46.17" style="fill:#111"/></svg>