<svg id="Layer_1" data-name="Layer 1" xmlns="http://www.w3.org/2000/svg" viewBox="0 0 40 40"><title>gradient-bullet</title><polygon points="32.05 19.97 25.55 8.82 22.63 13.86 26.16 19.97 32.61 31.18 38.5 31.18 32.05 19.97" style="fill:#fde000"/><polygon points="22.63 13.86 19.72 8.82 17.05 13.41 19.97 18.47 22.63 13.86" style="fill:#0093d8"/><polygon points="22.63 13.86 19.97 18.47 20.84 19.97 27.28 31.18 32.61 31.18 26.17 19.97 22.63 13.86" style="fill:#038103"/><polygon points="17.04 13.41 14.39 8.82 7.95 19.97 1.5 31.18 6.77 31.18 13.21 19.97 17.04 13.41" style="fill:#da2a8f"/><polygon points="19.97 18.47 17.04 13.41 13.21 19.97 6.77 31.18 12.66 31.18 19.1 19.97 19.97 18.47" style="fill:#01177a"/><polygon points="19.97 18.47 19.1 19.97 12.66 31.18 14.39 31.18 19.72 31.18 25.55 31.18 27.28 31.18 20.84 19.97 19.97 18.47"/></svg>