<svg id="Layer_1" data-name="Layer 1" xmlns="http://www.w3.org/2000/svg" viewBox="0 0 25 24.92"><title>instagram-white</title><path d="M32.5,20c0,2.51,0,4.21-.06,5.14a7.52,7.52,0,0,1-2,5.26,7.91,7.91,0,0,1-5.26,2c-.93.06-2.69.06-5.14.06s-4.21,0-5.14-.06a7.52,7.52,0,0,1-5.26-2,7.79,7.79,0,0,1-2-5.26A46.26,46.26,0,0,1,7.5,20c0-2.45,0-4.21.06-5.14a7.52,7.52,0,0,1,2-5.26,7.74,7.74,0,0,1,5.26-2c.93-.06,2.69-.06,5.14-.06s4.21,0,5.14.06a7.42,7.42,0,0,1,5.26,2,7.91,7.91,0,0,1,2,5.26c0,.93.06,2.63.06,5.14M21.23,9.72H17.08c-.41,0-.93,0-1.58.06a7.4,7.4,0,0,0-1.69.17,4.79,4.79,0,0,0-1.17.3,5.33,5.33,0,0,0-1.46.93,4.26,4.26,0,0,0-.94,1.46A5.79,5.79,0,0,0,10,13.81c0,.47-.11,1-.17,1.69s-.06,1.17-.06,1.58v5.84c0,.41,0,.93.06,1.58A7.4,7.4,0,0,0,10,26.19c.12.47.18.88.29,1.17a6.07,6.07,0,0,0,.94,1.46,4.09,4.09,0,0,0,1.46.93,4.79,4.79,0,0,0,1.17.3l1.69.17c.69.06,1.17.06,1.58.06H23c.41,0,.93,0,1.58-.06a7.4,7.4,0,0,0,1.69-.17,4.79,4.79,0,0,0,1.17-.3,5.33,5.33,0,0,0,1.46-.93,4.26,4.26,0,0,0,.94-1.46,5.27,5.27,0,0,0,.29-1.17c0-.47.11-1,.17-1.69s.06-1.17.06-1.58V17.08c0-.41,0-.94-.06-1.58a7.4,7.4,0,0,0-.17-1.69,5.27,5.27,0,0,0-.29-1.17,5.78,5.78,0,0,0-.94-1.46,4.09,4.09,0,0,0-1.46-.93,4.79,4.79,0,0,0-1.17-.3c-.47-.06-1-.11-1.69-.17S23.38,9.72,23,9.72Zm3.27,5.72A6.25,6.25,0,0,1,26.37,20a6.35,6.35,0,0,1-1.87,4.56,6.51,6.51,0,0,1-9.11,0,6.49,6.49,0,0,1,0-9.12,6.23,6.23,0,0,1,4.55-1.87,6,6,0,0,1,4.56,1.87m-1.58,7.48A4,4,0,0,0,24.15,20a4.15,4.15,0,0,0-1.23-3,4.21,4.21,0,0,0-7.19,3A3.87,3.87,0,0,0,17,22.92a4.22,4.22,0,0,0,6,0l0,0m4.79-10.69a1.41,1.41,0,0,1,.11,2l-.11.11a1.41,1.41,0,0,1-2,.11,1.14,1.14,0,0,1-.11-.11,1.49,1.49,0,1,1,1.93-2.27l.17.17" transform="translate(-7.5 -7.54)" style="fill:#f2f2f2"/></svg>