<svg id="Layer_1" data-name="Layer 1" xmlns="http://www.w3.org/2000/svg" viewBox="0 0 40 40"><title>instagram</title><path d="M32.5,20c0,2.51,0,4.21-.06,5.14a7.5,7.5,0,0,1-2,5.26,7.89,7.89,0,0,1-5.26,2c-.93.06-2.69.06-5.14.06s-4.21,0-5.14-.06a7.5,7.5,0,0,1-5.26-2,7.77,7.77,0,0,1-2-5.26C7.5,24.21,7.5,22.45,7.5,20s0-4.21.06-5.14a7.5,7.5,0,0,1,2-5.26,7.72,7.72,0,0,1,5.26-2c.93-.06,2.69-.06,5.14-.06s4.21,0,5.14.06a7.45,7.45,0,0,1,5.26,2,7.89,7.89,0,0,1,2,5.26c0,.93.06,2.63.06,5.14M21.23,9.72H17.08c-.41,0-.93,0-1.58.06a7.59,7.59,0,0,0-1.69.17,4.7,4.7,0,0,0-1.17.3,5.46,5.46,0,0,0-1.46.93,4.32,4.32,0,0,0-.94,1.46A5.24,5.24,0,0,0,10,13.81c0,.47-.11,1-.17,1.69s-.06,1.17-.06,1.58v5.84c0,.41,0,.93.06,1.58A7.59,7.59,0,0,0,10,26.19c.12.47.18.88.29,1.17a5.94,5.94,0,0,0,.94,1.46,4.15,4.15,0,0,0,1.46.93,4.7,4.7,0,0,0,1.17.3c.47.05,1,.11,1.69.17s1.17.06,1.58.06h5.84c.41,0,.93,0,1.58-.06a7.59,7.59,0,0,0,1.69-.17,4.7,4.7,0,0,0,1.17-.3,5.46,5.46,0,0,0,1.46-.93,4.32,4.32,0,0,0,.94-1.46,5.24,5.24,0,0,0,.29-1.17c.05-.47.11-1,.17-1.69s.06-1.17.06-1.58V17.08c0-.41,0-.94-.06-1.58a7.59,7.59,0,0,0-.17-1.69,5.24,5.24,0,0,0-.29-1.17,5.76,5.76,0,0,0-.94-1.46,4.15,4.15,0,0,0-1.46-.93,4.7,4.7,0,0,0-1.17-.3c-.47-.06-1-.11-1.69-.17s-1.17-.06-1.58-.06Zm3.27,5.72A6.26,6.26,0,0,1,26.37,20a6.35,6.35,0,0,1-1.87,4.56,6.51,6.51,0,0,1-9.11,0A6.22,6.22,0,0,1,13.52,20a6.31,6.31,0,0,1,1.87-4.56,6.22,6.22,0,0,1,4.55-1.87,6,6,0,0,1,4.56,1.87m-1.58,7.48A4,4,0,0,0,24.15,20a4.15,4.15,0,0,0-1.23-3,4.21,4.21,0,0,0-7.19,3A3.86,3.86,0,0,0,17,22.92a4.22,4.22,0,0,0,6,0m4.79-10.69a1.41,1.41,0,0,1,0,2.1,1.41,1.41,0,0,1-2.1,0,1.49,1.49,0,1,1,2.1-2.1" style="fill:#111"/></svg>