<svg id="Layer_1" data-name="Layer 1" xmlns="http://www.w3.org/2000/svg" viewBox="0 0 211.76 171.16"><title>lights</title><path d="M166.24,33.17l7.68-31.41H125.05l7.68,31.41a28.28,28.28,0,0,1,33.51,0" style="fill:#111"/><path d="M173.74,106.64,166.24,76a28.28,28.28,0,0,1-33.51,0l-7.5,30.69Z" style="fill:#111"/><path d="M128.1,37.81,96.68,30.12V79l31.42-7.68a28.28,28.28,0,0,1,0-33.51" style="fill:#111"/><path d="M170.87,37.81a29.43,29.43,0,0,1,0,33.51L202.29,79V30.12Z" style="fill:#111"/><path d="M149.48,32.57c-11.86,0-22,9.77-22,21.64a22,22,0,1,0,22-21.64m0,33.86a12,12,0,0,1-11.86-11.87,11.77,11.77,0,0,1,11.86-11.87,11.87,11.87,0,0,1,0,23.74" style="fill:#111"/><rect x="146.54" y="106.64" width="5.89" height="62.76" style="fill:#111"/><rect x="157.52" y="137.24" width="5.88" height="33.31" transform="translate(-61.82 158.54) rotate(-45)" style="fill:#111"/><rect x="121.92" y="150.95" width="33.3" height="5.88" transform="translate(-68.23 143.06) rotate(-45)" style="fill:#111"/><path d="M59.52,71.05,65,48.64H30.14l5.48,22.41a20.2,20.2,0,0,1,23.9,0" style="fill:#111"/><path d="M64.88,124.32l-5.36-21.9a20.16,20.16,0,0,1-23.9,0l-5.35,21.9Z" style="fill:#111"/><path d="M31.89,74.79,9.47,69.31v34.86l22.42-5.48a20.16,20.16,0,0,1,0-23.9" style="fill:#111"/><path d="M63.26,74.79a21,21,0,0,1,0,23.9l22.41,5.48V69.31Z" style="fill:#111"/><path d="M47.57,71.05A15.57,15.57,0,1,0,63.26,86.49,15.73,15.73,0,0,0,47.57,71.05m0,24.16a8.56,8.56,0,0,1-8.47-8.47,8.4,8.4,0,0,1,8.47-8.47,8.47,8.47,0,1,1,0,16.94" style="fill:#111"/><rect x="45.47" y="124.32" width="4.2" height="44.34" style="fill:#111"/><rect x="53.3" y="146.14" width="4.2" height="23.77" transform="translate(-95.52 85.46) rotate(-45)" style="fill:#111"/><rect x="27.91" y="155.93" width="23.76" height="4.2" transform="translate(-100.1 74.45) rotate(-45.01)" style="fill:#111"/></svg>