<svg id="Layer_1" data-name="Layer 1" xmlns="http://www.w3.org/2000/svg" viewBox="0 0 297.56 42.8"><title>logo</title><polygon points="30.17 8.2 30.17 34.95 23.93 34.95 12.11 20.68 12.11 34.95 4.68 34.95 4.68 8.2 10.92 8.2 22.74 22.47 22.74 8.2 30.17 8.2" style="fill:#111"/><polygon points="59.65 29.15 59.65 35.02 38.17 35.02 38.17 8.27 59.13 8.27 59.13 14.14 45.6 14.14 45.6 18.68 57.49 18.68 57.49 24.32 45.6 24.32 45.6 29.23 59.65 29.23 59.65 29.15" style="fill:#111"/><path d="M83.31,21.05h6.46V31.76a18.79,18.79,0,0,1-5,2.45A19.49,19.49,0,0,1,79,35a15.73,15.73,0,0,1-7.28-1.71,12.5,12.5,0,0,1-5.06-4.76,12.9,12.9,0,0,1-1.86-6.91,12.68,12.68,0,0,1,1.86-6.91A13.28,13.28,0,0,1,71.79,10a16.17,16.17,0,0,1,7.43-1.71H90.44l-3.49,6H79.59a6.9,6.9,0,0,0-7.35,7.36,7.88,7.88,0,0,0,.89,3.79,6.21,6.21,0,0,0,2.6,2.6,8,8,0,0,0,3.79,1,9.85,9.85,0,0,0,3.94-.82V21.05Z" style="fill:#111"/><polygon points="143.93 14.29 139.01 14.29 135.68 8.27 159.69 8.27 159.69 14.29 151.51 14.29 151.51 35.02 143.93 35.02 143.93 14.29" style="fill:#111"/><rect x="167.69" y="8.2" width="7.58" height="26.75" style="fill:#111"/><polygon points="213.12 8.2 201.68 34.95 194.24 34.95 182.8 8.2 190.97 8.2 198.26 25.66 205.69 8.2 213.12 8.2" style="fill:#111"/><text transform="translate(222.57 34.8)" style="font-size:14px;fill:#111;font-family:Mark-Book;letter-spacing:0.2490234375em">STUDI<tspan x="61.17" y="0" style="letter-spacing:-0.00006975446428571428em">O</tspan></text><polygon points="130.77 21.61 122.92 8.15 119.4 14.23 123.67 21.61 131.44 35.15 138.55 35.15 130.77 21.61" style="fill:#fde000"/><polygon points="119.4 14.23 115.89 8.15 112.66 13.69 116.19 19.8 119.4 14.23" style="fill:#0093d8"/><polygon points="119.4 14.23 116.19 19.8 117.23 21.61 125.01 35.15 131.45 35.15 123.67 21.61 119.4 14.23" style="fill:#038103"/><polygon points="112.66 13.69 109.46 8.15 101.68 21.61 93.9 35.15 100.26 35.15 108.03 21.61 112.66 13.69" style="fill:#da2a8f"/><polygon points="116.19 19.8 112.66 13.69 108.03 21.61 100.26 35.15 107.36 35.15 115.14 21.61 116.19 19.8" style="fill:#01177a"/><polygon points="116.19 19.8 115.14 21.61 107.36 35.15 109.46 35.15 115.89 35.15 122.92 35.15 125.01 35.15 117.23 21.61 116.19 19.8"/></svg>