<?xml version="1.0" encoding="utf-8"?>
<!-- Generator: Adobe Illustrator 23.1.1, SVG Export Plug-In . SVG Version: 6.00 Build 0)  -->
<svg version="1.1" id="Layer_1" xmlns="http://www.w3.org/2000/svg" xmlns:xlink="http://www.w3.org/1999/xlink" x="0px" y="0px"
	 viewBox="0 0 297.6 42.8" style="enable-background:new 0 0 297.6 42.8;" xml:space="preserve">
<style type="text/css">
	.st0{fill:#111111;}
	.st1{fill:#FDE000;}
	.st2{fill:#0093D8;}
	.st3{fill:#038103;}
	.st4{fill:#DA2A8F;}
	.st5{fill:#01177A;}
</style>
<title>logo</title>
<polygon class="st0" points="30.2,8.2 30.2,35 23.9,35 12.1,20.7 12.1,35 4.7,35 4.7,8.2 10.9,8.2 22.7,22.5 22.7,8.2 "/>
<polygon class="st0" points="59.7,29.1 59.7,35 38.2,35 38.2,8.3 59.1,8.3 59.1,14.1 45.6,14.1 45.6,18.7 57.5,18.7 57.5,24.3 
	45.6,24.3 45.6,29.2 59.7,29.2 "/>
<path class="st0" d="M83.3,21h6.5v10.7c-1.5,1.1-3.2,1.9-5,2.4C82.9,34.8,81,35,79,35c-2.5,0-5-0.6-7.3-1.7
	c-2.1-1.1-3.9-2.7-5.1-4.8c-1.3-2.1-1.9-4.5-1.9-6.9c-0.1-2.4,0.6-4.8,1.9-6.9c1.3-2,3-3.6,5.1-4.7c2.3-1.2,4.9-1.7,7.4-1.7h11.2
	l-3.5,6h-7.4c-3.8-0.3-7.1,2.6-7.4,6.4c0,0.3,0,0.6,0,0.9c0,1.3,0.3,2.6,0.9,3.8c0.6,1.1,1.5,2,2.6,2.6c1.2,0.6,2.5,1,3.8,1
	c1.4,0,2.7-0.3,3.9-0.8V21H83.3z"/>
<polygon class="st0" points="143.9,14.3 139,14.3 135.7,8.3 159.7,8.3 159.7,14.3 151.5,14.3 151.5,35 143.9,35 "/>
<rect x="167.7" y="8.2" class="st0" width="7.6" height="26.8"/>
<polygon class="st0" points="213.1,8.2 201.7,35 194.2,35 182.8,8.2 191,8.2 198.3,25.7 205.7,8.2 "/>
<path class="st0" d="M230.4,26.9c-0.9-0.6-1.9-0.9-2.9-0.9c-0.7,0-1.3,0.2-1.8,0.5s-0.7,0.7-0.7,1.2c0,0.4,0.2,0.8,0.5,1
	c0.4,0.2,0.9,0.4,1.7,0.5l0.9,0.1c2.1,0.3,3.1,1.1,3.1,2.6c0,0.5-0.1,0.9-0.3,1.3c-0.2,0.4-0.5,0.7-0.8,0.9
	c-0.4,0.2-0.8,0.4-1.2,0.6c-0.5,0.1-1,0.2-1.5,0.2c-0.7,0-1.4-0.1-2.1-0.3s-1.3-0.5-1.8-0.9l0.7-1c0.3,0.3,0.8,0.6,1.4,0.8
	c0.6,0.2,1.2,0.3,1.8,0.3c0.8,0,1.4-0.1,1.9-0.4c0.5-0.3,0.7-0.7,0.7-1.3c0-0.4-0.2-0.8-0.6-1s-1-0.4-1.8-0.5l-0.9-0.1
	c-0.4,0-0.8-0.1-1.1-0.3c-0.3-0.1-0.6-0.3-0.9-0.5c-0.3-0.2-0.5-0.5-0.6-0.8c-0.1-0.3-0.2-0.7-0.2-1.1c0-0.6,0.2-1.1,0.5-1.6
	c0.3-0.5,0.8-0.8,1.4-1c0.6-0.2,1.2-0.3,1.9-0.3c1.3,0,2.5,0.4,3.5,1.1L230.4,26.9z"/>
<path class="st0" d="M243.7,26.2h-3.3v8.6h-1.2v-8.6h-3.3V25h7.9V26.2z"/>
<path class="st0" d="M256.8,31c0,0.7-0.1,1.2-0.3,1.7c-0.2,0.5-0.5,0.9-0.9,1.2c-0.4,0.3-0.8,0.6-1.3,0.7s-1,0.3-1.6,0.3
	c-0.6,0-1.1-0.1-1.6-0.3c-0.5-0.2-0.9-0.4-1.3-0.7c-0.4-0.3-0.7-0.7-0.9-1.2s-0.3-1.1-0.3-1.7v-6h1.2v5.9c0,1,0.3,1.7,0.8,2.2
	c0.5,0.5,1.2,0.7,2.1,0.7s1.6-0.2,2.1-0.7c0.5-0.5,0.8-1.2,0.8-2.2V25h1.2V31z"/>
<path class="st0" d="M266.7,25c1.6,0,2.8,0.4,3.8,1.3s1.4,2.1,1.4,3.6c0,1.5-0.5,2.7-1.4,3.6s-2.2,1.3-3.8,1.3H263V25H266.7z
	 M264.2,26.2v7.5h2.5c1.3,0,2.2-0.3,2.9-1c0.7-0.7,1-1.6,1-2.7c0-1.1-0.3-2.1-1-2.7s-1.6-1-2.9-1H264.2z"/>
<path class="st0" d="M278.9,34.8h-1.2V25h1.2V34.8z"/>
<path class="st0" d="M289.7,24.9c1,0,1.8,0.2,2.6,0.6c0.8,0.4,1.4,1,1.8,1.8c0.4,0.8,0.7,1.6,0.7,2.6c0,1-0.2,1.8-0.7,2.6
	c-0.4,0.8-1,1.4-1.8,1.8c-0.8,0.4-1.6,0.6-2.6,0.6c-0.7,0-1.4-0.1-2-0.4c-0.6-0.3-1.2-0.6-1.6-1c-0.4-0.4-0.8-1-1-1.6
	c-0.3-0.6-0.4-1.3-0.4-2c0-0.7,0.1-1.4,0.4-2c0.3-0.6,0.6-1.2,1-1.6c0.4-0.4,1-0.8,1.6-1S288.9,24.9,289.7,24.9z M292.4,27.1
	c-0.7-0.7-1.6-1.1-2.7-1.1s-2,0.4-2.7,1.1c-0.7,0.7-1.1,1.6-1.1,2.8s0.4,2.1,1.1,2.8c0.7,0.7,1.6,1.1,2.7,1.1s2-0.4,2.7-1.1
	c0.7-0.7,1.1-1.6,1.1-2.8S293.1,27.8,292.4,27.1z"/>
<polygon class="st1" points="130.8,21.6 122.9,8.1 119.4,14.2 123.7,21.6 131.4,35.2 138.6,35.2 "/>
<polygon class="st2" points="119.4,14.2 115.9,8.1 112.7,13.7 116.2,19.8 "/>
<polygon class="st3" points="119.4,14.2 116.2,19.8 117.2,21.6 125,35.2 131.4,35.2 123.7,21.6 "/>
<polygon class="st4" points="112.7,13.7 109.5,8.1 101.7,21.6 93.9,35.2 100.3,35.2 108,21.6 "/>
<polygon class="st5" points="116.2,19.8 112.7,13.7 108,21.6 100.3,35.2 107.4,35.2 115.1,21.6 "/>
<polygon points="116.2,19.8 115.1,21.6 107.4,35.2 109.5,35.2 115.9,35.2 122.9,35.2 125,35.2 117.2,21.6 "/>
</svg>
