<?xml version="1.0" encoding="utf-8"?>
<!-- Generator: Adobe Illustrator 23.1.1, SVG Export Plug-In . SVG Version: 6.00 Build 0)  -->
<svg version="1.1" id="Layer_1" xmlns="http://www.w3.org/2000/svg" xmlns:xlink="http://www.w3.org/1999/xlink" x="0px" y="0px"
	 viewBox="0 0 40 40" style="enable-background:new 0 0 40 40;" xml:space="preserve">
<style type="text/css">
	.st0{fill:#111111;}
</style>
<title>phone</title>
<path class="st0" d="M25,27.5H15V10.1h10V27.5z M20,28.8c0.7,0,1.2,0.6,1.2,1.2s-0.6,1.2-1.2,1.2s-1.2-0.6-1.2-1.2
	C18.8,29.3,19.3,28.8,20,28.8 M26.2,7.5H13.8c-1.2,0-1.2,0-1.2,1.2v22.5c0,1.2,0,1.2,1.2,1.2h12.5c1.2,0,1.2,0,1.2-1.2V8.8
	C27.5,7.5,27.5,7.5,26.2,7.5"/>
</svg>
