<svg id="Layer_1" data-name="Layer 1" xmlns="http://www.w3.org/2000/svg" viewBox="0 0 273.78 78.11"><title>stars</title><polygon points="30.98 18.63 36.05 34.23 52.46 34.23 39.19 43.88 44.26 59.48 30.98 49.84 17.71 59.48 22.78 43.88 9.51 34.23 25.91 34.23 30.98 18.63" style="fill:#fde000"/><polygon points="83.94 18.63 89 34.23 105.41 34.23 92.14 43.88 97.21 59.48 83.94 49.84 70.66 59.48 75.73 43.88 62.46 34.23 78.86 34.23 83.94 18.63" style="fill:#fde000"/><polygon points="136.89 18.63 141.96 34.23 158.37 34.23 145.09 43.88 150.16 59.48 136.89 49.84 123.61 59.48 128.69 43.88 115.41 34.23 131.82 34.23 136.89 18.63" style="fill:#fde000"/><polygon points="189.84 18.63 194.91 34.23 211.32 34.23 198.05 43.88 203.12 59.48 189.84 49.84 176.57 59.48 181.64 43.88 168.37 34.23 184.77 34.23 189.84 18.63" style="fill:#fde000"/><polygon points="242.8 18.63 247.87 34.23 264.27 34.23 251 43.88 256.07 59.48 242.8 49.84 229.52 59.48 234.59 43.88 221.32 34.23 237.73 34.23 242.8 18.63" style="fill:#fde000"/></svg>